<?xml version="1.0" standalone="no"?>
<!DOCTYPE svg PUBLIC "-//W3C//DTD SVG 1.1//EN" "http://www.w3.org/Graphics/SVG/1.1/DTD/svg11.dtd" >
<svg xmlns="http://www.w3.org/2000/svg">
<metadata>Generated by IcoMoon</metadata>
<defs>
<font id="icomoon" horiz-adv-x="1024">
<font-face units-per-em="1024" ascent="960" descent="-64" />
<missing-glyph horiz-adv-x="1024" />
<glyph unicode="&#x20;" horiz-adv-x="512" d="" />
<glyph unicode="&#xe600;" glyph-name="Icon_eCart" horiz-adv-x="1164" d="M1111.211 663.808l-192-416c-15.19-32.939-48.555-55.808-87.211-55.808h-608c-52.992 0-96 42.965-96 96v476.117l-113.92 113.92c-8.704 8.704-14.080 20.693-14.080 33.963 0 26.496 21.504 48 48 48 13.269 0 25.259-5.376 33.963-14.080l145.92-145.92h796.117c52.992 0 96-42.965 96-96 0-14.336-3.157-27.947-8.789-40.192v0zM224 288h608l118.187 256h-726.187v-256zM1024 704h-800v-64h770.517l29.568 64.043-0.085-0.043zM256 128c53.035 0 96-42.965 96-96s-42.965-96-96-96c-52.992 0-96 42.965-96 96s43.008 96 96 96v0zM768 128c52.992 0 96-42.965 96-96s-43.008-96-96-96c-52.992 0-96 42.965-96 96s43.008 96 96 96v0z" />
<glyph unicode="&#xe601;" glyph-name="Icon_Emp_ArrowDown" horiz-adv-x="1463" d="M1368.21 707.218l-553.106-603.429c-28.526-31.159-68.754-49.006-111.177-49.006-42.277 0-82.505 17.847-111.177 49.006l-553.106 603.429 0.439 0.293c-24.722 26.917-40.082 62.318-40.082 101.669 0 83.237 67.584 150.821 150.821 150.821 44.032 0 83.237-19.163 110.738-49.152l0.439 0.293 441.929-482.158 441.929 482.158 0.439-0.293c27.502 29.989 66.853 49.152 110.738 49.152 83.383 0 150.967-67.584 150.967-150.821 0-39.351-15.506-74.752-40.082-101.669l0.293-0.293z" />
<glyph unicode="&#xe602;" glyph-name="Icon_Emp_Browse" horiz-adv-x="1339" d="M649.846-50.872c-358.925 0-613.717 324.897-649.846 505.436 36.129 180.487 290.921 505.436 649.846 505.436 358.978 0 613.77-324.949 649.846-505.436-36.076-180.539-290.869-505.436-649.846-505.436v0zM649.846 851.666c-283.359 0-494.251-250.591-538.309-397.102 44.058-146.563 254.95-397.154 538.309-397.154 283.412 0 494.251 250.591 538.309 397.154-44.058 146.511-254.897 397.102-538.309 397.102v0zM649.846 743.385c159.534 0 288.821-129.339 288.821-288.821s-129.287-288.82-288.821-288.82c-159.481 0-288.821 129.339-288.821 288.82s129.339 288.821 288.821 288.821v0zM649.846 289.516c91.005 0 165.048 73.991 165.048 165.048 0 91.005-74.043 164.995-165.048 164.995s-165.048-73.991-165.048-164.995c0-91.057 74.043-165.048 165.048-165.048v0z" />
<glyph unicode="&#xe603;" glyph-name="Icon_Emp_Calendar" d="M918.261 837.565h-122.435v76.533c0 25.333-20.569 45.902-45.902 45.902-25.377 0-45.946-20.569-45.946-45.902v-76.533h-428.522v76.533c0 25.333-20.569 45.902-45.902 45.902s-45.902-20.569-45.902-45.902v-76.533h-122.435c-33.792 0-61.217-27.381-61.217-61.217v-734.564c0-33.837 27.425-61.262 61.217-61.262h857.043c33.792 0 61.217 27.425 61.217 61.262v734.564c0 33.837-27.425 61.217-61.217 61.217v0zM91.804 562.109h795.826v-489.739h-795.826v489.739zM91.804 745.761h795.826v-91.804h-795.826v91.804z" />
<glyph unicode="&#xe604;" glyph-name="Icon_Emp_Enrol" horiz-adv-x="791" d="M704-64h-640c-35.328 0-64 28.629-64 64v800c0 35.328 28.672 64 64 64h96v64c0 17.664 14.293 32 32 32h384c17.664 0 32-14.336 32-32v-64h96c35.328 0 64-28.672 64-64v-800c0-35.371-28.672-64-64-64v0zM256 768h256v96h-256v-96zM672 768h-64v-64c0-17.707-14.336-32-32-32h-384c-17.707 0-32 14.293-32 32v64h-64v-736h576v736zM192 576h384v-96h-384v96zM192 416h384v-96h-384v96z" />
<glyph unicode="&#xe605;" glyph-name="Icon_Emp_Home" horiz-adv-x="838" d="M416.221 840.715l320.213-320.17v-488.494h-160.128v224.119c0 35.389-28.645 64.034-64.034 64.034h-192.059c-35.389 0-64.034-28.645-64.034-64.034v-224.119h-160.085v488.494l320.127 320.17zM444.524 948.25c-15.624 15.667-40.939 15.667-56.563 0l-369.177-369.135c-11.996-11.996-18.783-28.303-18.783-45.293v-533.788c0-35.347 28.687-64.034 64.077-64.034h224.076c35.389 0 64.034 28.687 64.034 64.034v224.119h128.111v-224.119c0-35.347 28.645-64.034 64.034-64.034h224.119c35.347 0 64.034 28.687 64.034 64.034v533.788c0 16.99-6.788 33.298-18.783 45.293l-369.177 369.135z" />
<glyph unicode="&#xe606;" glyph-name="Icon_Emp_Information" d="M512-64c-282.298 0-512 229.702-512 512s229.702 512 512 512c282.298 0 512-229.702 512-512s-229.702-512-512-512v0zM512 863.977c-229.376 0-415.977-186.601-415.977-415.977s186.601-415.977 415.977-415.977c229.423 0 416.023 186.601 416.023 415.977s-186.601 415.977-416.023 415.977v0zM512 192c-35.328 0-64 28.672-64 64v192c0 35.328 28.672 64 64 64 35.375 0 64-28.672 64-64v-192c0-35.328-28.625-64-64-64v0zM512 576c-35.328 0-64 28.672-64 64s28.672 64 64 64c35.375 0 64-28.672 64-64s-28.625-64-64-64v0z" />
<glyph unicode="&#xe607;" glyph-name="Icon_Emp_Modify" d="M953.224 699.482l-250.037 250.037c-7.048 7.048-16.324 10.481-25.6 10.481-9.216 0-18.492-3.433-25.54-10.481l-652.047-652.107v-301.176h301.176l652.047 652.107c7.048 7.048 10.541 16.324 10.541 25.54 0 9.276-3.494 18.552-10.541 25.6v0zM137.336 314.338l417.973 417.973 180.706-180.706-417.973-417.973-180.706 180.706zM90.353 233.562l146.914-146.974h-146.914v146.974zM799.925 615.514l-180.706 180.706 58.368 58.368 180.706-180.706-58.368-58.368z" />
<glyph unicode="&#xe608;" glyph-name="Icon_Emp_MyBenefits" d="M544 893.568v18.432c0 26.496-21.504 48-48 48s-48-21.504-48-48v-18.432c-251.051-24.235-448-236.245-448-493.568 0-22.869 16.171-42.624 38.613-47.061s44.885 7.424 53.717 28.587c16.811 40.363 55.936 66.475 99.669 66.475 43.776 0 82.901-26.112 99.712-66.475 7.125-17.152 23.467-28.587 42.027-29.483 19.285-1.024 35.925 8.96 44.629 25.344 15.317 28.8 40.277 50.133 69.632 61.44v-358.827c0-26.496-21.504-48-48-48-26.453 0-48 21.504-48 48s-21.504 48-48 48c-26.496 0-48-21.504-48-48 0-79.403 64.597-144 144-144s144 64.597 144 144v358.827c29.355-11.307 54.315-32.64 69.675-61.44 8.661-16.341 25.301-25.941 44.629-25.344 18.517 0.896 34.901 12.331 42.027 29.483 16.811 40.363 55.936 66.475 99.669 66.475 43.776 0 82.859-26.112 99.712-66.475 7.552-18.176 25.216-29.525 44.245-29.525 3.157 0 6.315 0.299 9.472 0.939 22.4 4.437 38.571 24.192 38.571 47.061 0 257.323-196.949 469.333-448 493.568v0zM800 544c-56.619 0-109.141-23.168-146.816-62.251-41.856 39.424-97.707 62.251-157.184 62.251s-115.285-22.827-157.184-62.251c-37.632 39.083-90.197 62.251-146.816 62.251-25.941 0-51.072-4.864-74.283-13.909 54.101 156.885 203.264 269.909 378.283 269.909s324.181-113.024 378.283-269.909c-23.211 9.045-48.299 13.909-74.283 13.909v0z" />
<glyph unicode="&#xe609;" glyph-name="Icon_Emp_MyClaims" horiz-adv-x="1122" d="M1039.49-45.958h-972.426c-37.019 0-67.064 30-67.064 67.064v704.171c0 37.019 30.045 67.064 67.064 67.064h234.724v100.596c0 37.019 30.045 67.064 67.064 67.064h368.851c37.064 0 67.064-30.045 67.064-67.064v-100.596h234.724c37.019 0 67.064-30.045 67.064-67.064v-704.171c0-37.064-30.045-67.064-67.064-67.064v0zM402.383 792.34h301.787v67.064h-301.787v-67.064zM100.596 54.638h905.362v637.107h-905.362v-637.107zM502.979 557.617h100.596v-134.128h134.128v-100.596h-134.128v-134.128h-100.596v134.128h-134.128v100.596h134.128v134.128z" />
<glyph unicode="&#xe60a;" glyph-name="Icon_Emp_MyShop" d="M961.536 482.95l-484.53-484.486c-11.932-11.932-27.559-17.942-43.275-17.942-15.627 0-31.299 6.010-43.275 17.942l-372.558 372.558c-11.442 11.487-17.898 27.025-17.898 43.275s6.456 31.789 17.898 43.275l484.486 484.486c11.487 11.487 27.069 17.942 43.32 17.942h372.558c16.206 0 31.789-6.456 43.275-17.942 11.442-11.442 17.898-27.025 17.898-43.275v-372.513c0-16.25-6.456-31.833-17.898-43.32v0zM104.493 414.297l329.238-329.283 65.759 65.759-329.283 329.238-65.714-65.714zM887.63 868.196l-329.238-0.044-323.228-323.228 329.238-329.238 323.228 323.228v329.283zM703.978 745.761c33.792 0 61.217-27.425 61.217-61.217s-27.425-61.217-61.217-61.217c-33.792 0-61.217 27.425-61.217 61.217s27.425 61.217 61.217 61.217v0z" />
<glyph unicode="&#xe60b;" glyph-name="Icon_Emp_MyWellness" d="M552.96 960c-305.357 0-552.96-220.078-552.96-491.52 0-124.682 57.221-235.971 146.76-309.207-11.182-42.926-19.169-86.917-23.634-131.686-2.499-25.313 15.974-47.882 41.288-50.422 1.556-0.164 3.072-0.205 4.628-0.205 23.388 0 43.418 17.736 45.793 41.533 2.99 30.147 7.905 59.843 14.295 89.088 51.692-24.412 109.281-38.461 170.23-38.461 220.57 0 399.36 178.79 399.36 399.36 0 133.489 75.039 247.112 184.32 307.2-101.376 110.879-256.819 184.32-430.080 184.32v0zM706.56 468.48c0-169.37-137.789-307.2-307.2-307.2-52.224 0-101.376 13.148-144.507 36.25 52.101 148.275 148.603 278.651 278.815 371.671 10.363 7.373 16.712 18.309 18.678 29.942 1.925 11.633-0.573 24.003-7.946 34.324-7.414 10.404-18.309 16.753-29.942 18.678-11.633 1.966-24.003-0.573-34.365-7.946-137.585-98.304-241.705-233.759-302.039-388.26-53.043 55.255-85.893 130.048-85.893 212.541 0 220.201 206.725 399.36 460.8 399.36 104.12 0 203.571-30.925 284.672-86.958-82.78-82.125-131.072-194.028-131.072-312.402v0z" />
<glyph unicode="&#xe60c;" glyph-name="Icon_Emp_NeedHelp" d="M489.739 960c-270.47 0-489.739-219.27-489.739-489.739s219.27-489.739 489.739-489.739c270.514 0 489.739 219.27 489.739 489.739s-219.225 489.739-489.739 489.739v0zM698.234 808.715c25.867-15.939 50.488-34.682 72.882-57.077 22.439-22.439 41.138-47.015 57.121-72.882l-140.154-65.358c-7.524 10.463-15.761 20.569-25.155 30.008-9.439 9.394-19.59 17.631-30.008 25.199l65.313 140.11zM642.805 470.261c0-84.502-68.519-153.066-153.066-153.066-84.502 0-153.021 68.563-153.021 153.066s68.519 153.021 153.021 153.021c84.547 0 153.066-68.519 153.066-153.021v0zM489.739 867.573c42.34 0 84.68-6.678 125.24-20.124l-65.313-140.021c-39.313 9.884-80.54 9.884-119.897 0l-65.269 140.021c40.604 13.446 82.944 20.124 125.24 20.124v0zM208.362 751.638c22.439 22.394 47.015 41.183 72.882 57.077l65.313-140.11c-10.418-7.569-20.525-15.761-29.963-25.199s-17.631-19.545-25.199-30.008l-140.11 65.358c15.894 25.867 34.727 50.443 57.077 72.882v0zM112.506 345.021c-13.401 40.604-20.079 82.944-20.079 125.24 0 42.34 6.678 84.636 20.124 125.24l140.021-65.313c-9.884-39.313-9.928-80.54 0-119.853l-140.065-65.313zM281.244 131.762c-25.867 15.939-50.443 34.727-72.882 57.121-22.35 22.394-41.138 47.015-57.121 72.882l140.154 65.358c7.569-10.463 15.761-20.614 25.199-30.008 9.394-9.439 19.59-17.631 30.008-25.199l-65.358-140.154zM489.739 72.949c-42.296 0-84.591 6.678-125.24 20.079l65.313 140.065c39.313-9.928 80.54-9.928 119.853 0l65.313-140.065c-40.604-13.401-82.899-20.079-125.24-20.079v0zM771.117 188.883c-22.394-22.394-47.015-41.183-72.882-57.121l-65.313 140.154c10.418 7.569 20.525 15.761 30.008 25.199 9.394 9.394 17.631 19.545 25.199 30.008l140.11-65.313c-15.983-25.912-34.682-50.532-57.121-72.927v0zM726.906 410.335c9.884 39.313 9.884 80.54 0 119.853l140.021 65.313c13.446-40.604 20.124-82.944 20.124-125.24s-6.678-84.636-20.079-125.24l-140.065 65.313z" />
<glyph unicode="&#xe60d;" glyph-name="Icon_Emp_NewClaim" d="M512-64c282.77 0 512 229.23 512 512s-229.23 512-512 512c-282.77 0-512-229.23-512-512s229.23-512 512-512zM672 384h-96v-96c0-35.328-28.672-64-64-64s-64 28.672-64 64v96h-96c-35.328 0-64 28.672-64 64s28.672 64 64 64h96v96c0 35.328 28.672 64 64 64s64-28.672 64-64v-96h96c35.328 0 64-28.672 64-64s-28.672-64-64-64z" />
<glyph unicode="&#xe60e;" glyph-name="Icon_Emp_SubmitNewClaim" d="M512-64c-282.795 0-512 229.205-512 512s229.205 512 512 512c282.795 0 512-229.205 512-512s-229.205-512-512-512v0zM512 864c-229.376 0-416-186.624-416-416s186.624-416 416-416c229.376 0 416 186.624 416 416s-186.624 416-416 416v0zM672 384h-96v-96c0-35.328-28.672-64-64-64s-64 28.672-64 64v96h-96c-35.328 0-64 28.672-64 64s28.672 64 64 64h96v96c0 35.328 28.672 64 64 64s64-28.672 64-64v-96h96c35.328 0 64-28.672 64-64s-28.672-64-64-64v0z" />
<glyph unicode="&#xe60f;" glyph-name="Icon_Emp_Trash" horiz-adv-x="832" d="M260.185 240.707v306.087h91.804v-306.087h-91.804zM443.793 240.707v306.087h91.848v-306.087h-91.848zM153.021 715.13v-642.805h489.739v642.805h-489.739zM306.087 868.196v-61.217h183.652v61.217h-183.652zM795.826 761.077c0-25.377-20.569-45.946-45.902-45.946h-15.315v-673.391c0-33.792-27.425-61.217-61.217-61.217h-550.957c-33.836 0-61.217 27.425-61.217 61.217v673.391h-15.316c-25.333 0-45.902 20.569-45.902 45.946 0 25.333 20.569 45.902 45.902 45.902h168.337v91.804c0 33.837 27.425 61.217 61.217 61.217h244.87c33.837 0 61.217-27.381 61.217-61.217v-91.804h168.381c25.333 0 45.902-20.569 45.902-45.902v0z" />
<glyph unicode="&#xe610;" glyph-name="Icon_Emp_Void" d="M512 960c-282.764 0-512-229.236-512-512s229.236-512 512-512c282.81 0 512 229.236 512 512s-229.19 512-512 512v0zM96.023 448c0 229.423 186.601 416.023 415.977 416.023 97.466 0 186.973-33.932 257.908-90.252l-583.68-583.68c-56.32 70.982-90.205 160.489-90.205 257.908v0zM512 32.023c-97.42 0-186.927 33.885-257.908 90.205l583.727 583.68c56.273-70.982 90.205-160.489 90.205-257.908 0-229.376-186.647-415.977-416.023-415.977v0z" />
<glyph unicode="&#xe611;" glyph-name="Icon_SubmitNewClaim" d="M512-64c-282.795 0-512 229.205-512 512s229.205 512 512 512c282.795 0 512-229.205 512-512s-229.205-512-512-512v0zM512 864c-229.376 0-416-186.624-416-416s186.624-416 416-416c229.376 0 416 186.624 416 416s-186.624 416-416 416v0zM672 384h-96v-96c0-35.328-28.672-64-64-64s-64 28.672-64 64v96h-96c-35.328 0-64 28.672-64 64s28.672 64 64 64h96v96c0 35.328 28.672 64 64 64s64-28.672 64-64v-96h96c35.328 0 64-28.672 64-64s-28.672-64-64-64v0z" />
<glyph unicode="&#xe612;" glyph-name="Icon_Emp_Download" horiz-adv-x="896" d="M799.977-64h-735.977c-35.281 0-64 28.719-64 64v672.023c0 35.281 28.719 64 64 64h175.988c26.531 0 47.988-21.504 47.988-47.988 0-26.531-21.457-48.035-47.988-48.035h-144.012v-607.977h672.023v607.977h-144.012c-26.531 0-47.988 21.504-47.988 48.035 0 26.484 21.457 47.988 47.988 47.988h175.988c35.328 0 64-28.719 64-64v-672.023c0-35.281-28.672-64-64-64v0zM640 431.988c0-13.219-5.399-25.228-14.057-33.932l-160.023-159.977c-8.657-8.704-20.666-14.057-33.932-14.057s-25.228 5.353-33.932 14.057l-160.023 159.977c-8.657 8.704-14.057 20.713-14.057 33.932 0 26.531 21.504 48.035 48.035 48.035 13.219 0 25.228-5.399 33.932-14.057l78.057-78.103v524.148c0 26.484 21.457 47.988 47.988 47.988s47.988-21.504 47.988-47.988v-524.148l78.057 78.103c8.704 8.657 81.967-7.447 81.967-33.978v0z" />
<glyph unicode="&#xe613;" glyph-name="Icon_Emp_Language" d="M489.739 960c-270.025 0-489.739-219.67-489.739-489.739 0-270.024 219.715-489.739 489.739-489.739 270.069 0 489.739 219.715 489.739 489.739 0 270.069-219.67 489.739-489.739 489.739v0zM826.457 675.64h-92.294c-12.911 52.135-30.453 99.194-52.046 139.264 59.303-33.258 108.945-81.386 144.339-139.264v0zM884.691 470.261c0-38.422-5.743-75.42-16.027-110.592h-117.181c4.363 35.484 6.856 72.392 6.856 110.592 0 38.244-2.493 75.108-6.856 110.592h117.181c10.284-35.128 16.027-72.17 16.027-110.592v0zM94.831 470.261c0 38.422 5.743 75.464 16.028 110.592h117.181c-4.363-35.484-6.856-72.348-6.856-110.592 0-38.2 2.493-75.108 6.856-110.592h-117.181c-10.285 35.172-16.028 72.17-16.028 110.592v0zM315.971 470.261c0 39.090 2.805 75.954 7.48 110.592h118.918v-221.184h-118.918c-4.675 34.682-7.48 71.546-7.48 110.592v0zM537.155 848.028c39.090-27.871 75.776-88.776 99.506-172.388h-99.506v172.388zM442.368 848.028v-172.388h-99.506c23.686 83.612 60.416 144.518 99.506 172.388v0zM442.368 264.882v-172.388c-39.090 27.915-75.821 88.776-99.506 172.388h99.506zM537.155 92.494v172.388h99.506c-23.73-83.612-60.416-144.473-99.506-172.388v0zM537.155 359.669v221.184h118.918c4.675-34.638 7.48-71.502 7.48-110.592 0-39.046-2.805-75.91-7.48-110.592h-118.918zM297.405 814.904c-21.593-40.070-39.135-87.129-52.046-139.264h-92.294c35.395 57.878 85.037 106.006 144.34 139.264v0zM153.066 264.882h92.294c12.911-52.090 30.453-99.194 52.046-139.219-59.303 33.213-108.945 81.386-144.34 139.219v0zM682.118 125.663c21.593 40.025 39.134 87.129 52.046 139.219h92.294c-35.395-57.834-85.036-106.006-144.339-139.219v0z" />
<glyph unicode="&#xe614;" glyph-name="Icon_Emp_Benefit_WhosCovered" horiz-adv-x="1472" d="M1454.347 58.969v-26.134c0-28.895-23.418-52.313-52.313-52.313h-1340.817c-33.837 0-61.217 27.381-61.217 61.217v30.586c0 150.617 96.701 281.422 239.082 349.006-34.638 56.275-55.43 126.086-55.43 201.951 0 185.967 123.325 336.718 275.456 336.718 152.175 0 275.501-150.751 275.501-336.718 0-75.865-20.836-145.675-55.474-201.951 52.669-25.021 98.972-58.724 136.548-98.838 18.343 12.822 37.487 24.843 58.323 34.682-29.607 48.128-47.416 107.743-47.416 172.611 0 158.898 105.427 287.744 235.431 287.744s235.386-128.846 235.386-287.744c0-64.868-17.764-124.483-47.371-172.611 121.678-57.7 204.31-169.494 204.31-298.207v0zM459.108 378.413c99.551 0 183.652 112.15 183.652 244.87s-84.102 244.87-183.652 244.87c-99.551 0-183.652-112.15-183.652-244.87s84.102-244.87 183.652-244.87v0zM617.65 348.227c-44.833-38.689-99.462-61.618-158.542-61.618-59.036 0-113.664 22.929-158.542 61.618-123.37-49.419-208.762-154.401-208.762-275.901h578.916c3.206 70.567 31.076 135.346 76.577 188.461-34.682 36.686-78.625 67.005-129.647 87.441v0zM1062.022 719.761c-75.42 0-139.13-84.947-139.13-185.522 0-100.53 63.711-185.478 139.13-185.478s139.13 84.947 139.13 185.478c0 100.575-63.711 185.522-139.13 185.522v0zM1362.543 72.326c0 99.417-69.855 185.299-170.785 225.725-36.73-31.655-81.43-50.399-129.736-50.399s-93.006 18.744-129.692 50.399c-25.244-10.106-48.573-23.062-69.32-38.333 34.727-55.919 55.251-119.407 55.251-187.392h444.282zM761.5 72.326h64.913c0 41.717-10.685 81.252-28.895 117.493-22.573-35.128-36.018-74.93-36.018-117.493v0z" />
<glyph unicode="&#xe615;" glyph-name="Broker_Icon_Arrangements" horiz-adv-x="1126" d="M528.026 854.426l-105.626 105.574h-352c-38.861 0-70.4-31.488-70.4-70.349v-844.8c0-38.912 31.539-70.4 70.4-70.4h985.6c38.912 0 70.4 31.488 70.4 70.4v739.174c0 38.861-31.488 70.4-70.4 70.4h-527.974zM378.675 854.426l105.574-105.574h536.576v-70.4h-915.2v175.974h273.050zM105.626 572.826h915.2v-492.8h-915.2v492.8z" />
<glyph unicode="&#xe616;" glyph-name="Broker_Icon_Employees" horiz-adv-x="977" d="M710.051 396.847c36.212 58.833 57.949 131.817 57.949 211.13 0 194.42-128.931 352.023-287.977 352.023-159.092 0-288.023-157.603-288.023-352.023 0-79.313 21.737-152.297 57.949-211.13-148.806-70.656-249.949-207.407-249.949-364.87v-31.977c0-35.375 28.672-64 64-64h832c35.328 0 64 28.625 64 64v31.977c0 157.463-101.143 294.214-249.949 364.87v0zM480.023 863.977c104.029 0 192-117.248 192-256s-87.971-256-192-256c-104.076 0-192 117.248-192 256s87.924 256 192 256v0zM96.023 31.977c0 127.023 89.274 236.777 218.252 288.442 46.871-40.448 103.983-64.419 165.748-64.419 61.719 0 118.831 23.971 165.748 64.419 128.931-51.665 218.252-161.42 218.252-288.442h-768z" />
<glyph unicode="&#xe617;" glyph-name="Broker_Icon_Entities" horiz-adv-x="1073" d="M972.215 691.858h-368.786v167.595c0 55.54-45.007 100.547-100.547 100.547h-402.286c-55.54 0-100.596-45.007-100.596-100.547v-871.619c0-18.53 15.019-33.548 33.548-33.548h1005.714c18.481 0 33.499 15.019 33.499 33.548v603.429c0 55.54-45.007 100.596-100.547 100.596v0zM502.882 54.882h-134.095v134.095h-134.095v-134.095h-134.095v804.571h402.286v-804.571zM972.215 54.882h-117.37v134.095h-134.095v-134.095h-117.321v536.381h368.786v-536.381zM167.643 356.571h268.19v-100.547h-268.19v100.547zM167.643 524.215h268.19v-100.547h-268.19v100.547zM167.643 691.81h268.19v-100.547h-268.19v100.547zM670.476 524.166h234.691v-100.547h-234.691v100.547zM670.476 356.571h234.691v-100.547h-234.691v100.547z" />
<glyph unicode="&#xe618;" glyph-name="Broker_Icon_Security" horiz-adv-x="838" d="M671.977 576v128c0 141.405-114.641 256-256 256s-256-114.595-256-256v-128h-95.977c-35.375 0-64-28.625-64-64v-512c0-35.328 28.625-64 64-64h704c35.328 0 64 28.672 64 64v512c0 35.375-28.672 64-64 64h-96.023zM256 704c0 88.204 71.773 160.023 159.977 160.023s160.023-71.82 160.023-160.023v-128h-320v128zM95.977 480.023h640v-448h-640v448z" />
<glyph unicode="&#xe619;" glyph-name="Icon_Emp_ArrowRight" horiz-adv-x="1463" d="M554.406 882.993l412.256-377.875c21.286-19.488 33.48-46.973 33.48-75.954 0-28.882-12.193-56.367-33.48-75.954l-412.256-377.875-0.2 0.3c-18.39-16.89-42.574-27.384-69.458-27.384-56.866 0-103.039 46.174-103.039 103.039 0 30.083 13.092 56.866 33.581 75.656l-0.2 0.3 329.404 301.92-329.404 301.92 0.2 0.3c-20.488 18.789-33.58 45.673-33.58 75.656 0 56.967 46.174 103.14 103.039 103.14 26.885 0 51.071-10.593 69.459-27.383l0.2 0.2z" />
<glyph unicode="&#xe61a;" glyph-name="Icon_Emp_ArrowLeft" horiz-adv-x="1463" d="M908.594 13.007l-412.256 377.875c-21.286 19.488-33.48 46.973-33.48 75.954 0 28.882 12.193 56.367 33.48 75.954l412.256 377.875 0.2-0.3c18.39 16.89 42.574 27.384 69.458 27.384 56.866 0 103.039-46.174 103.039-103.039 0-30.083-13.092-56.866-33.581-75.656l0.2-0.3-329.404-301.92 329.404-301.92-0.2-0.3c20.488-18.789 33.581-45.672 33.581-75.656 0-56.967-46.174-103.14-103.039-103.14-26.885 0-51.071 10.593-69.458 27.383l-0.2-0.2z" />
<glyph unicode="&#xe61b;" glyph-name="Broker_Icon_Search" d="M602.353 960c-199.62 0-361.412-161.852-361.412-361.412 0-83.546 28.552-160.226 76.198-221.365l-303.887-303.887c-8.855-8.855-13.252-20.359-13.252-31.925s4.397-23.13 13.252-31.985c8.794-8.794 20.359-13.192 31.925-13.192s23.13 4.397 31.925 13.192l303.887 303.887c61.199-47.586 137.879-76.137 221.365-76.137 199.559 0 361.412 161.792 361.412 361.412 0 199.56-161.852 361.412-361.412 361.412v0zM602.353 327.469c-149.504 0-271.059 121.615-271.059 271.119 0 149.444 121.555 271.059 271.059 271.059 149.444 0 271.059-121.615 271.059-271.059 0-149.504-121.615-271.119-271.059-271.119v0z" />
<glyph unicode="&#xe61c;" glyph-name="Icon_Cross" d="M512-64c-282.752 0-512 229.248-512 512s229.248 512 512 512c282.752 0 512-229.248 512-512s-229.248-512-512-512v0zM512 864c-229.376 0-416-186.624-416-416s186.624-416 416-416c229.376 0 416 186.624 416 416s-186.624 416-416 416v0zM703.616 302.080c-0.512-11.648-4.8-23.104-13.696-32s-20.352-13.248-32-13.696c-12.928-0.512-25.984 3.84-35.904 13.696l-110.016 110.016-110.016-110.016c-9.856-9.856-22.976-14.208-35.904-13.696-11.584 0.448-23.104 4.8-32 13.696-8.832 8.896-13.184 20.352-13.696 32-0.512 12.928 3.84 25.984 13.696 35.84l110.016 110.080-110.016 110.016c-9.856 9.856-14.208 22.912-13.696 35.84 0.512 11.648 4.864 23.168 13.696 32 8.896 8.896 20.416 13.248 32 13.696 12.928 0.576 26.048-3.776 35.904-13.696l110.016-110.016 110.016 110.016c9.92 9.92 22.976 14.272 35.904 13.696 11.648-0.448 23.104-4.8 32-13.696 8.896-8.832 13.184-20.352 13.696-32 0.512-12.928-3.84-25.984-13.696-35.84l-110.016-110.016 110.016-110.080c9.856-9.856 14.208-22.912 13.696-35.84v0z" />
<glyph unicode="&#xe61d;" glyph-name="Icon_Plus" d="M512.047-64c-282.81 0-512.047 229.19-512.047 512 0 282.764 229.236 512 512.047 512 282.764 0 512-229.236 512-512 0-282.81-229.236-512-512-512v0zM512.047 863.977c-229.376 0-416.023-186.601-416.023-415.977s186.647-416.023 416.023-416.023c229.376 0 415.977 186.647 415.977 416.023s-186.601 415.977-415.977 415.977v0zM672.023 384h-96.023v-96.023c0-35.328-28.625-64-63.953-64-35.375 0-64 28.672-64 64v96.023h-96.023c-35.328 0-64 28.625-64 64 0 35.328 28.672 64 64 64h96.023v95.977c0 35.375 28.625 64 64 64 35.328 0 63.953-28.625 63.953-64v-95.977h96.023c35.328 0 64-28.672 64-64 0-35.375-28.672-64-64-64v0z" />
<glyph unicode="&#xe61e;" glyph-name="Icon_Tick" d="M512-64c-282.764 0-512 229.236-512 512 0 282.717 229.236 512 512 512 282.717 0 512-229.283 512-512 0-282.764-229.283-512-512-512v0zM512 863.977c-229.376 0-416.023-186.601-416.023-415.977s186.647-416.023 416.023-416.023c229.376 0 415.977 186.647 415.977 416.023s-186.601 415.977-415.977 415.977v0zM497.943 270.057c-9.402-9.356-21.69-14.057-33.932-14.057-12.288 0-24.576 4.701-33.932 14.057l-160.023 159.977c-9.868 9.914-14.243 22.947-13.684 35.887 0.465 11.59 4.794 23.133 13.684 32.023 8.89 8.844 20.387 13.219 32.023 13.684 12.893 0.512 25.972-3.817 35.84-13.684l126.092-126.092 222.068 222.068c9.868 9.868 22.9 14.243 35.84 13.684 11.59-0.465 23.133-4.794 32.023-13.684 8.844-8.89 13.219-20.387 13.684-32.023 0.512-12.893-3.817-25.972-13.684-35.84l-256-256z" />
<glyph unicode="&#xe61f;" glyph-name="Icon_Emp_Upload" horiz-adv-x="896" d="M775.758-32.97h-713.697c-34.226 0-62.061 27.834-62.061 62.061v558.545c0 34.195 27.834 62.061 62.061 62.061h170.667c25.724 0 46.545-20.852 46.545-46.545s-20.821-46.545-46.545-46.545h-139.636v-496.485h651.636v496.485h-139.636c-25.693 0-46.545 20.852-46.545 46.545s20.852 46.545 46.545 46.545h170.667c34.226 0 62.061-27.865 62.061-62.061v-558.545c0-34.226-27.834-62.061-62.061-62.061v0zM574.061 711.758c-12.847 0-24.483 5.213-32.892 13.622l-75.714 75.714v-508.245c0-25.693-20.821-46.545-46.545-46.545-25.693 0-46.545 20.852-46.545 46.545v508.245l-75.683-75.714c-8.44-8.409-20.077-13.622-32.923-13.622-25.693 0-46.545 20.852-46.545 46.545 0 12.847 5.213 24.483 13.653 32.892l155.151 155.152c8.409 8.44 20.046 13.653 32.892 13.653s24.483-5.213 32.923-13.653l155.151-155.152c8.409-8.409 13.622-20.046 13.622-32.892 0-25.693-20.821-46.545-46.545-46.545v0z" />
<glyph unicode="&#xe620;" glyph-name="Icon_Validation_Cross" d="M1022.060 59.966c-1.365-31.061-12.8-61.781-36.523-85.333-23.723-23.723-54.272-35.328-85.333-36.523-34.475-1.536-69.291 10.069-95.744 36.523l-293.376 293.376-293.376-293.376c-26.283-26.453-61.269-38.059-95.744-36.523-30.891 1.195-61.611 12.8-85.333 36.523-23.552 23.552-35.157 54.272-36.523 85.333-1.365 34.475 10.24 69.291 36.523 95.573l293.376 293.376-293.376 293.547c-26.283 26.283-37.888 61.099-36.523 95.573 1.365 31.061 12.971 61.781 36.523 85.333 23.723 23.723 54.443 35.328 85.333 36.523 34.475 1.365 69.461-10.069 95.744-36.523l293.376-293.376 293.376 293.376c26.453 26.453 61.269 37.888 95.744 36.523 31.061-1.195 61.611-12.8 85.333-36.523 23.723-23.552 35.157-54.272 36.523-85.333 1.365-34.475-10.24-69.291-36.523-95.573l-293.376-293.547 293.376-293.376c26.283-26.283 37.888-61.099 36.523-95.573z" />
<glyph unicode="&#xe621;" glyph-name="Icon_Validation_Tick" horiz-adv-x="1365" d="M644.23 59.626c-24.917-24.917-57.685-37.547-90.453-37.547s-65.536 12.629-90.453 37.547l-426.667 426.667c-26.453 26.283-38.059 61.269-36.523 95.573 1.195 31.061 12.8 61.781 36.523 85.504 23.552 23.552 54.272 35.157 85.333 36.523 34.475 1.365 69.291-10.24 95.573-36.523l336.213-336.213 592.213 592.213c26.283 26.283 61.099 37.888 95.573 36.523 30.891-1.365 61.781-12.971 85.333-36.523 23.723-23.723 35.328-54.443 36.523-85.504 1.365-34.304-10.24-69.291-36.523-95.573l-682.667-682.667z" />
<glyph unicode="&#xe622;" glyph-name="Icon_Enrol_Questionaire" horiz-adv-x="768" d="M662.588-3.765h-602.353c-33.25 0-60.235 26.985-60.235 60.235v752.941c0 33.31 26.985 60.235 60.235 60.235h90.353v60.235c0 16.685 13.493 30.118 30.118 30.118h361.412c16.625 0 30.118-13.432 30.118-30.118v-60.235h90.353c33.25 0 60.235-26.925 60.235-60.235v-752.941c0-33.25-26.985-60.235-60.235-60.235v0zM240.941 779.294h240.941v90.353h-240.941v-90.353zM632.471 779.294h-60.235v-60.235c0-16.625-13.493-30.057-30.118-30.057h-361.412c-16.625 0-30.118 13.432-30.118 30.057v60.235h-60.235v-692.706h542.118v692.706zM180.706 598.588h361.412v-90.353h-361.412v90.353zM180.706 448h361.412v-90.353h-361.412v90.353z" />
<glyph unicode="&#xe623;" glyph-name="minus_icon" d="M512-64c-282.81 0-512 229.19-512 512 0 282.764 229.19 512 512 512 282.764 0 512-229.236 512-512 0-282.81-229.236-512-512-512v0zM512 863.977c-229.376 0-416.023-186.601-416.023-415.977s186.647-416.023 416.023-416.023c229.376 0 415.977 186.647 415.977 416.023s-186.601 415.977-415.977 415.977v0zM671.977 384h-320c-35.328 0-64 28.672-64 64s28.672 64 64 64h320c35.375 0 64-28.672 64-64s-28.625-64-64-64v0z" />
<glyph unicode="&#xe624;" glyph-name="plus_icon" d="M822.633 137.367c-188.175-188.175-493.327-188.175-681.502 0s-188.175 493.327 0 681.502c188.175 188.175 493.327 188.175 681.502 0s188.175-493.327 0-681.502v0zM204.981 754.959c-152.636-152.636-152.636-401.047 0-553.683 152.696-152.636 401.107-152.636 553.743 0s152.636 401.047 0 553.743c-152.636 152.636-401.047 152.636-553.743-0.060v0zM706.5 508.536c7.409-8.072 12.168-18.613 12.168-30.419s-4.759-22.347-12.168-30.419c-8.252-8.915-19.878-14.758-33.009-14.758h-146.492l0.060-146.432c-0.060-13.131-5.843-24.757-14.818-33.009-8.011-7.409-18.552-12.168-30.359-12.168s-22.408 4.759-30.419 12.168c-8.975 8.252-14.758 19.878-14.758 33.009v146.432h-146.492c-13.131 0-24.696 5.843-32.949 14.758-7.469 8.072-12.228 18.613-12.228 30.419s4.759 22.347 12.228 30.419c8.252 8.975 19.817 14.758 32.949 14.758h146.492v146.492c0 13.131 5.783 24.696 14.758 32.949 8.011 7.409 18.613 12.228 30.419 12.228s22.347-4.819 30.359-12.228c8.975-8.252 14.758-19.817 14.818-32.949l-0.060-146.492h146.492c13.131 0 24.757-5.783 33.009-14.758v0z" />
<glyph unicode="&#xe625;" glyph-name="Broker_Icon_Convert" d="M1009.916 945.904c-13.184 13.184-32.768 17.6-50.304 11.2l-927.936-336c-18.176-6.592-30.656-23.424-31.616-42.688-0.96-19.328 9.728-37.312 27.2-45.696l384.768-184.704 184.704-384.832c8-16.64 24.896-27.2 43.264-27.2 0.832 0 1.6 0.064 2.368 0.064 19.328 0.96 36.16 13.44 42.752 31.616l336 927.936c6.336 17.536 1.984 37.12-11.2 50.304v0zM171.836 569.776l617.728 223.616-351.424-351.424-266.304 127.808zM633.788 107.824l-127.808 266.304 351.488 351.424-223.68-617.728z" />
<glyph unicode="&#xe626;" glyph-name="Icon_Emp_Print" d="M1024 671.977c0 35.328-28.625 64-64 64h-128v224.023h-640v-224.023h-128c-35.328 0-64-28.672-64-64v-512c0-35.328 28.672-64 64-64h128v-159.977h640v159.977h128c35.375 0 64 28.672 64 64v512zM288.023 863.977h448v-128h-448v128zM288.023 256h448v-223.977h-448v223.977zM928.023 192h-96.023v159.977h-640v-159.977h-95.977v448h832v-448z" />
</font>
</defs>
</svg>
